<svg width="100" height="100" viewBox="0 0 100 100" fill="none" xmlns="http://www.w3.org/2000/svg">
<circle cx="50" cy="50" r="41.1765" fill="#181E5B" stroke="#F1F1F2" stroke-width="17.6471"/>
<path d="M41.9047 40.9963C41.9229 40.775 42.0257 40.5693 42.1917 40.4219C42.3577 40.2745 42.5741 40.1968 42.796 40.2048C43.0178 40.2129 43.228 40.3062 43.3829 40.4653C43.5377 40.6244 43.6252 40.837 43.6273 41.059V45.4649C43.6273 45.6274 43.6918 45.7833 43.8068 45.8982C43.9217 46.0131 44.0775 46.0777 44.24 46.0777C44.4025 46.0777 44.5584 46.0131 44.6733 45.8982C44.7882 45.7833 44.8528 45.6274 44.8528 45.4649V40.9316C44.8528 40.7366 44.9302 40.5495 45.0681 40.4117C45.206 40.2738 45.3931 40.1963 45.5881 40.1963C45.7831 40.1963 45.9701 40.2738 46.108 40.4117C46.2459 40.5495 46.3234 40.7366 46.3234 40.9316V45.4649C46.3234 45.6274 46.3879 45.7833 46.5028 45.8982C46.6177 46.0131 46.7736 46.0777 46.9361 46.0777C47.0986 46.0777 47.2545 46.0131 47.3694 45.8982C47.4843 45.7833 47.5489 45.6274 47.5489 45.4649V41.059C47.5509 40.837 47.6385 40.6244 47.7933 40.4653C47.9481 40.3062 48.1583 40.2129 48.3802 40.2048C48.602 40.1968 48.8184 40.2745 48.9844 40.4219C49.1504 40.5693 49.2532 40.775 49.2714 40.9963C49.3136 41.5963 49.5096 44.4806 49.5096 46.0786C49.5096 47.4022 48.8528 48.5728 47.8508 49.2816C47.6391 49.4316 47.5881 49.5904 47.593 49.6708C47.7136 51.512 48.0391 56.5512 48.0391 57.3502C48.0391 58.0002 47.7808 58.6237 47.3212 59.0833C46.8615 59.543 46.2381 59.8012 45.5881 59.8012C44.938 59.8012 44.3146 59.543 43.855 59.0833C43.3953 58.6237 43.1371 58.0002 43.1371 57.3502C43.1371 56.5502 43.4626 51.512 43.5832 49.6708C43.5881 49.5904 43.5371 49.4316 43.3253 49.2816C42.8127 48.9194 42.3945 48.4395 42.1058 47.8822C41.8172 47.3248 41.6665 46.7063 41.6665 46.0786C41.6665 44.4806 41.8626 41.5963 41.9047 40.9963ZM50.9802 45.8335C50.9802 44.3385 51.5742 42.9046 52.6313 41.8474C53.6885 40.7902 55.1224 40.1963 56.6175 40.1963C56.8125 40.1963 56.9995 40.2738 57.1374 40.4117C57.2753 40.5495 57.3528 40.7366 57.3528 40.9316V49.2649C57.3528 49.5767 57.4567 51.1228 57.5734 52.8355L57.5783 52.9169C57.7057 54.7875 57.843 56.8218 57.843 57.3502C57.843 58.0002 57.5847 58.6237 57.1251 59.0833C56.6655 59.543 56.042 59.8012 55.392 59.8012C54.742 59.8012 54.1185 59.543 53.6589 59.0833C53.1992 58.6237 52.941 58.0002 52.941 57.3502C52.941 56.8463 53.0665 54.7904 53.1881 52.9051C53.2489 51.9532 53.3106 51.0306 53.3567 50.3463L53.3792 50.0002H52.6959C52.4706 50.0002 52.2475 49.9558 52.0394 49.8696C51.8312 49.7834 51.6421 49.657 51.4827 49.4977C51.3234 49.3384 51.197 49.1492 51.1108 48.9411C51.0246 48.7329 50.9802 48.5098 50.9802 48.2845V45.8335Z" fill="#F1F1F2"/>
</svg>
