<svg width="211" height="29" viewBox="0 0 211 29" fill="none" xmlns="http://www.w3.org/2000/svg">
<path d="M11.471 23.63C12.383 23.63 13.1303 23.5223 13.713 23.307C14.3083 23.079 14.7833 22.7813 15.138 22.414C15.4927 22.0467 15.7397 21.6287 15.879 21.16C16.0183 20.6787 16.088 20.1847 16.088 19.678C16.088 19.1207 16.0057 18.6203 15.841 18.177C15.6763 17.7337 15.4103 17.36 15.043 17.056C14.6757 16.7393 14.1943 16.4987 13.599 16.334C13.0163 16.1693 12.2943 16.087 11.433 16.087H6.588V23.63H11.471ZM6.588 4.763V12.211H10.331C11.129 12.211 11.8383 12.1477 12.459 12.021C13.0797 11.8817 13.599 11.6663 14.017 11.375C14.435 11.0837 14.7517 10.7037 14.967 10.235C15.195 9.75367 15.309 9.17733 15.309 8.506C15.309 7.822 15.214 7.23933 15.024 6.758C14.8467 6.27667 14.568 5.89033 14.188 5.599C13.808 5.30767 13.3267 5.09867 12.744 4.972C12.1613 4.83267 11.471 4.763 10.673 4.763H6.588ZM10.673 0.430998C12.5223 0.430998 14.0993 0.608332 15.404 0.962998C16.7213 1.305 17.7917 1.799 18.615 2.445C19.451 3.07833 20.059 3.851 20.439 4.763C20.819 5.675 21.009 6.69467 21.009 7.822C21.009 8.45533 20.914 9.06333 20.724 9.646C20.5467 10.2287 20.2617 10.7797 19.869 11.299C19.489 11.8057 18.995 12.268 18.387 12.686C17.779 13.104 17.057 13.4587 16.221 13.75C18.0957 14.1933 19.4827 14.9153 20.382 15.916C21.2813 16.9167 21.731 18.215 21.731 19.811C21.731 20.9763 21.503 22.0593 21.047 23.06C20.6037 24.0607 19.9513 24.9283 19.09 25.663C18.2287 26.3977 17.1647 26.974 15.898 27.392C14.644 27.7973 13.2 28 11.566 28H0.888V0.430998H10.673ZM32.2033 28H26.4653V0.430998H32.2033V28ZM53.2832 5.713C53.1058 6.00433 52.9222 6.21967 52.7322 6.359C52.5548 6.48567 52.3205 6.549 52.0292 6.549C51.7505 6.549 51.4465 6.454 51.1172 6.264C50.8005 6.06133 50.4268 5.846 49.9962 5.618C49.5655 5.39 49.0715 5.181 48.5142 4.991C47.9568 4.78833 47.3045 4.687 46.5572 4.687C45.2398 4.687 44.2518 4.98466 43.5932 5.58C42.9345 6.16267 42.6052 6.929 42.6052 7.879C42.6052 8.487 42.7825 8.99367 43.1372 9.399C43.5045 9.79167 43.9795 10.1337 44.5622 10.425C45.1575 10.7163 45.8288 10.976 46.5762 11.204C47.3235 11.432 48.0898 11.6853 48.8752 11.964C49.6605 12.23 50.4268 12.5467 51.1742 12.914C51.9215 13.2813 52.5865 13.7437 53.1692 14.301C53.7645 14.8583 54.2395 15.5423 54.5942 16.353C54.9615 17.151 55.1452 18.1263 55.1452 19.279C55.1452 20.533 54.9235 21.711 54.4802 22.813C54.0495 23.9023 53.4225 24.8587 52.5992 25.682C51.7758 26.4927 50.7562 27.1323 49.5402 27.601C48.3368 28.0697 46.9688 28.304 45.4362 28.304C44.5622 28.304 43.6882 28.2153 42.8142 28.038C41.9528 27.8607 41.1168 27.6137 40.3062 27.297C39.5082 26.9803 38.7545 26.6003 38.0452 26.157C37.3358 25.7137 36.7152 25.2197 36.1832 24.675L37.8552 21.977C37.9945 21.7743 38.1782 21.6097 38.4062 21.483C38.6342 21.3437 38.8748 21.274 39.1282 21.274C39.4702 21.274 39.8312 21.4007 40.2112 21.654C40.5912 21.9073 41.0282 22.186 41.5222 22.49C42.0162 22.794 42.5862 23.0727 43.2322 23.326C43.8908 23.5793 44.6762 23.706 45.5882 23.706C46.9182 23.706 47.9442 23.402 48.6662 22.794C49.4008 22.186 49.7682 21.2803 49.7682 20.077C49.7682 19.3803 49.5845 18.8167 49.2172 18.386C48.8625 17.9553 48.3938 17.5943 47.8112 17.303C47.2285 17.0117 46.5635 16.7647 45.8162 16.562C45.0688 16.3467 44.3025 16.1123 43.5172 15.859C42.7318 15.6057 41.9655 15.3017 41.2182 14.947C40.4708 14.5923 39.8058 14.1237 39.2232 13.541C38.6405 12.9583 38.1655 12.2363 37.7982 11.375C37.4435 10.5137 37.2662 9.44333 37.2662 8.164C37.2662 7.138 37.4688 6.14367 37.8742 5.181C38.2795 4.21833 38.8748 3.36333 39.6602 2.616C40.4455 1.86866 41.4082 1.267 42.5482 0.810998C43.7008 0.354998 45.0182 0.126998 46.5002 0.126998C48.1595 0.126998 49.6922 0.386664 51.0982 0.905998C52.5168 1.41267 53.7138 2.122 54.6892 3.034L53.2832 5.713ZM79.1719 5.029H71.1159V28H65.3969V5.029H57.3409V0.430998H79.1719V5.029ZM91.5984 13.484C92.5231 13.484 93.3211 13.37 93.9925 13.142C94.6638 12.9013 95.2148 12.5783 95.6455 12.173C96.0761 11.755 96.3928 11.2673 96.5955 10.71C96.7981 10.1527 96.8995 9.54467 96.8995 8.886C96.8995 7.58133 96.4625 6.568 95.5885 5.846C94.7271 5.124 93.4098 4.763 91.6365 4.763H88.6725V13.484H91.5984ZM104.955 28H99.8065C98.8438 28 98.1471 27.6327 97.7165 26.898L92.4724 18.443C92.2571 18.1137 92.0165 17.873 91.7505 17.721C91.4971 17.569 91.1171 17.493 90.6105 17.493H88.6725V28H82.9724V0.430998H91.6365C93.5618 0.430998 95.2085 0.633665 96.5765 1.039C97.9445 1.43167 99.0655 1.98267 99.9395 2.692C100.813 3.40133 101.453 4.25 101.858 5.238C102.264 6.21333 102.466 7.29 102.466 8.468C102.466 9.38 102.333 10.2477 102.067 11.071C101.814 11.8817 101.44 12.6227 100.946 13.294C100.452 13.9653 99.8445 14.5607 99.1225 15.08C98.4005 15.5993 97.5771 16.0173 96.6525 16.334C97.0198 16.5367 97.3618 16.7837 97.6785 17.075C97.9951 17.3537 98.2801 17.6893 98.5335 18.082L104.955 28ZM134.223 14.206C134.223 16.22 133.881 18.0883 133.197 19.811C132.526 21.5337 131.569 23.022 130.328 24.276C129.099 25.53 127.617 26.518 125.882 27.24C124.147 27.9493 122.221 28.304 120.106 28.304C117.991 28.304 116.065 27.9493 114.33 27.24C112.595 26.518 111.106 25.53 109.865 24.276C108.624 23.022 107.661 21.5337 106.977 19.811C106.306 18.0883 105.97 16.22 105.97 14.206C105.97 12.192 106.306 10.33 106.977 8.62C107.661 6.89733 108.624 5.409 109.865 4.155C111.106 2.901 112.595 1.91933 114.33 1.21C116.065 0.487998 117.991 0.126998 120.106 0.126998C122.221 0.126998 124.147 0.487998 125.882 1.21C127.617 1.91933 129.099 2.90733 130.328 4.174C131.569 5.428 132.526 6.91633 133.197 8.639C133.881 10.349 134.223 12.2047 134.223 14.206ZM128.39 14.206C128.39 12.762 128.2 11.47 127.82 10.33C127.44 9.17733 126.889 8.202 126.167 7.404C125.458 6.59333 124.59 5.979 123.564 5.561C122.551 5.13033 121.398 4.915 120.106 4.915C118.814 4.915 117.655 5.13033 116.629 5.561C115.603 5.979 114.729 6.59333 114.007 7.404C113.298 8.202 112.753 9.17733 112.373 10.33C111.993 11.47 111.803 12.762 111.803 14.206C111.803 15.6627 111.993 16.9673 112.373 18.12C112.753 19.26 113.298 20.229 114.007 21.027C114.729 21.825 115.603 22.4393 116.629 22.87C117.655 23.288 118.814 23.497 120.106 23.497C121.398 23.497 122.551 23.288 123.564 22.87C124.59 22.4393 125.458 21.825 126.167 21.027C126.889 20.229 127.44 19.26 127.82 18.12C128.2 16.9673 128.39 15.6627 128.39 14.206ZM167.315 0.430998H172.35V28H169.386C168.943 28 168.569 27.9303 168.265 27.791C167.974 27.639 167.683 27.3857 167.391 27.031L153.635 9.57C153.673 10.0133 153.699 10.4503 153.711 10.881C153.737 11.299 153.749 11.6917 153.749 12.059V28H148.733V0.430998H151.716C151.957 0.430998 152.166 0.443665 152.343 0.468998C152.521 0.481665 152.673 0.525999 152.799 0.601999C152.939 0.665333 153.072 0.753999 153.198 0.867998C153.325 0.981999 153.464 1.134 153.616 1.324L167.467 18.918C167.417 18.4367 167.379 17.968 167.353 17.512C167.328 17.0433 167.315 16.6063 167.315 16.201V0.430998ZM182.002 3.471C181.141 3.471 180.482 3.737 180.026 4.269C179.57 4.801 179.342 5.542 179.342 6.492C179.342 7.42933 179.57 8.164 180.026 8.696C180.482 9.228 181.141 9.494 182.002 9.494C182.864 9.494 183.522 9.228 183.978 8.696C184.447 8.164 184.681 7.42933 184.681 6.492C184.681 5.542 184.447 4.801 183.978 4.269C183.522 3.737 182.864 3.471 182.002 3.471ZM182.04 12.952C181.027 12.952 180.109 12.7873 179.285 12.458C178.462 12.116 177.753 11.6537 177.157 11.071C176.575 10.4883 176.125 9.81067 175.808 9.038C175.492 8.25267 175.333 7.41667 175.333 6.53C175.333 5.64333 175.492 4.80733 175.808 4.022C176.125 3.23666 176.575 2.55266 177.157 1.97C177.753 1.38733 178.462 0.931333 179.285 0.601999C180.109 0.259999 181.027 0.0889981 182.04 0.0889981C183.041 0.0889981 183.953 0.259999 184.776 0.601999C185.6 0.943999 186.303 1.40633 186.885 1.989C187.481 2.57167 187.937 3.25567 188.253 4.041C188.583 4.81367 188.747 5.64333 188.747 6.53C188.747 7.41667 188.583 8.25267 188.253 9.038C187.937 9.81067 187.481 10.4883 186.885 11.071C186.303 11.6537 185.6 12.116 184.776 12.458C183.953 12.7873 183.041 12.952 182.04 12.952ZM175.447 14.643H188.557V18.291H175.447V14.643ZM210.467 24.143V28H195.001V24.143H200.473V9.057C200.473 8.72767 200.479 8.392 200.492 8.05C200.505 7.708 200.524 7.35967 200.549 7.005L196.939 10.007C196.686 10.197 196.439 10.3173 196.198 10.368C195.957 10.4187 195.729 10.425 195.514 10.387C195.299 10.3363 195.109 10.2603 194.944 10.159C194.779 10.045 194.653 9.931 194.564 9.817L192.911 7.594L201.385 0.412H205.698V24.143H210.467Z" fill="white"/>
</svg>
