<svg width="28" height="28" viewBox="0 0 28 28" fill="none" xmlns="http://www.w3.org/2000/svg">
<path fill-rule="evenodd" clip-rule="evenodd" d="M20.0693 27.5105C18.1493 27.4398 12.7079 26.6878 7.00925 20.9905C1.31192 15.2918 0.561252 9.8518 0.489252 7.93047C0.382585 5.00247 2.62525 2.15847 5.21592 1.0478C5.52789 0.913088 5.86952 0.8618 6.20729 0.898966C6.54506 0.936133 6.86737 1.06048 7.14259 1.2598C9.27592 2.81447 10.7479 5.16647 12.0119 7.0158C12.29 7.42211 12.4089 7.91653 12.346 8.40486C12.283 8.89319 12.0426 9.3413 11.6706 9.6638L9.06925 11.5958C8.94357 11.6866 8.85511 11.8198 8.82029 11.9709C8.78547 12.122 8.80665 12.2805 8.87992 12.4171C9.46925 13.4878 10.5173 15.0825 11.7173 16.2825C12.9173 17.4825 14.5879 18.5998 15.7333 19.2558C15.8769 19.3364 16.0459 19.3589 16.2056 19.3188C16.3653 19.2786 16.5035 19.1788 16.5919 19.0398L18.2853 16.4625C18.5966 16.0489 19.0558 15.7719 19.5668 15.6894C20.0778 15.6069 20.6009 15.7253 21.0266 16.0198C22.9026 17.3185 25.0919 18.7651 26.6946 20.8171C26.9101 21.0943 27.0472 21.4243 27.0915 21.7727C27.1358 22.121 27.0858 22.4748 26.9466 22.7971C25.8306 25.4011 23.0066 27.6185 20.0693 27.5105Z" fill="#181E5B"/>
</svg>
